<mxfile host="app.diagrams.net" agent="Mozilla/5.0 (Windows NT 10.0; Win64; x64) AppleWebKit/537.36 (KHTML, like Gecko) Chrome/128.0.0.0 Safari/537.36" version="24.7.15">
  <diagram name="Страница — 1" id="WsmNVoZ1XOKM6wW6esLS">
    <mxGraphModel dx="2049" dy="1114" grid="1" gridSize="10" guides="1" tooltips="1" connect="1" arrows="1" fold="1" page="1" pageScale="1" pageWidth="1654" pageHeight="2336" math="0" shadow="0">
      <root>
        <mxCell id="0" />
        <mxCell id="1" parent="0" />
        <mxCell id="b8SGIurOboEkmsRjIlzD-1" value="начало" style="ellipse;whiteSpace=wrap;html=1;" vertex="1" parent="1">
          <mxGeometry x="354" y="160" width="86" height="50" as="geometry" />
        </mxCell>
        <mxCell id="b8SGIurOboEkmsRjIlzD-2" value="arr" style="shape=parallelogram;perimeter=parallelogramPerimeter;whiteSpace=wrap;html=1;fixedSize=1;" vertex="1" parent="1">
          <mxGeometry x="345.5" y="240" width="103" height="40" as="geometry" />
        </mxCell>
        <mxCell id="b8SGIurOboEkmsRjIlzD-3" value="if len(arr) == 0" style="rhombus;whiteSpace=wrap;html=1;" vertex="1" parent="1">
          <mxGeometry x="330" y="310" width="130" height="50" as="geometry" />
        </mxCell>
        <mxCell id="b8SGIurOboEkmsRjIlzD-5" value="return false" style="shape=parallelogram;perimeter=parallelogramPerimeter;whiteSpace=wrap;html=1;fixedSize=1;" vertex="1" parent="1">
          <mxGeometry x="448.5" y="370" width="120" height="40" as="geometry" />
        </mxCell>
        <mxCell id="b8SGIurOboEkmsRjIlzD-7" value="" style="endArrow=classic;html=1;rounded=0;exitX=1;exitY=0.5;exitDx=0;exitDy=0;entryX=0.5;entryY=0;entryDx=0;entryDy=0;" edge="1" parent="1" source="b8SGIurOboEkmsRjIlzD-3" target="b8SGIurOboEkmsRjIlzD-5">
          <mxGeometry width="50" height="50" relative="1" as="geometry">
            <mxPoint x="380" y="550" as="sourcePoint" />
            <mxPoint x="430" y="500" as="targetPoint" />
          </mxGeometry>
        </mxCell>
        <mxCell id="b8SGIurOboEkmsRjIlzD-8" value="true" style="text;html=1;align=center;verticalAlign=middle;whiteSpace=wrap;rounded=0;" vertex="1" parent="1">
          <mxGeometry x="479" y="331" width="60" height="30" as="geometry" />
        </mxCell>
        <mxCell id="b8SGIurOboEkmsRjIlzD-9" value="first_sign = -1" style="rounded=0;whiteSpace=wrap;html=1;" vertex="1" parent="1">
          <mxGeometry x="201.5" y="361" width="100" height="34" as="geometry" />
        </mxCell>
        <mxCell id="b8SGIurOboEkmsRjIlzD-11" value="return false" style="shape=parallelogram;perimeter=parallelogramPerimeter;whiteSpace=wrap;html=1;fixedSize=1;" vertex="1" parent="1">
          <mxGeometry x="376.5" y="645" width="110" height="40" as="geometry" />
        </mxCell>
        <mxCell id="b8SGIurOboEkmsRjIlzD-12" value="true" style="text;html=1;align=center;verticalAlign=middle;whiteSpace=wrap;rounded=0;" vertex="1" parent="1">
          <mxGeometry x="345.5" y="546.25" width="60" height="30" as="geometry" />
        </mxCell>
        <mxCell id="b8SGIurOboEkmsRjIlzD-15" value="" style="endArrow=classic;html=1;rounded=0;entryX=0.25;entryY=0;entryDx=0;entryDy=0;exitX=0.958;exitY=0.519;exitDx=0;exitDy=0;exitPerimeter=0;" edge="1" parent="1" source="b8SGIurOboEkmsRjIlzD-89" target="b8SGIurOboEkmsRjIlzD-11">
          <mxGeometry width="50" height="50" relative="1" as="geometry">
            <mxPoint x="360" y="570" as="sourcePoint" />
            <mxPoint x="385" y="670" as="targetPoint" />
            <Array as="points">
              <mxPoint x="400" y="570" />
            </Array>
          </mxGeometry>
        </mxCell>
        <mxCell id="b8SGIurOboEkmsRjIlzD-17" value="if first_sign == -1" style="rhombus;whiteSpace=wrap;html=1;" vertex="1" parent="1">
          <mxGeometry x="155" y="606.25" width="130" height="47.5" as="geometry" />
        </mxCell>
        <mxCell id="b8SGIurOboEkmsRjIlzD-18" value="first_sign = arr[i] &amp;gt; 0" style="rounded=0;whiteSpace=wrap;html=1;" vertex="1" parent="1">
          <mxGeometry x="369" y="765" width="125" height="50" as="geometry" />
        </mxCell>
        <mxCell id="b8SGIurOboEkmsRjIlzD-20" value="if (arr[i] &amp;gt; 0) != first_sign&amp;nbsp;" style="rhombus;whiteSpace=wrap;html=1;" vertex="1" parent="1">
          <mxGeometry x="105" y="685" width="130" height="70" as="geometry" />
        </mxCell>
        <mxCell id="b8SGIurOboEkmsRjIlzD-22" value="" style="endArrow=classic;html=1;rounded=0;exitX=1;exitY=0.5;exitDx=0;exitDy=0;" edge="1" parent="1" source="b8SGIurOboEkmsRjIlzD-20">
          <mxGeometry width="50" height="50" relative="1" as="geometry">
            <mxPoint x="425" y="580" as="sourcePoint" />
            <mxPoint x="400" y="610" as="targetPoint" />
          </mxGeometry>
        </mxCell>
        <mxCell id="b8SGIurOboEkmsRjIlzD-23" value="true" style="text;html=1;align=center;verticalAlign=middle;whiteSpace=wrap;rounded=0;" vertex="1" parent="1">
          <mxGeometry x="201.5" y="680" width="60" height="30" as="geometry" />
        </mxCell>
        <mxCell id="b8SGIurOboEkmsRjIlzD-27" value="i += 1" style="rounded=0;whiteSpace=wrap;html=1;" vertex="1" parent="1">
          <mxGeometry x="225" y="920" width="100" height="40" as="geometry" />
        </mxCell>
        <mxCell id="b8SGIurOboEkmsRjIlzD-28" value="if i &amp;lt; len(arr)" style="rhombus;whiteSpace=wrap;html=1;" vertex="1" parent="1">
          <mxGeometry x="209" y="460" width="85" height="40" as="geometry" />
        </mxCell>
        <mxCell id="b8SGIurOboEkmsRjIlzD-29" value="" style="endArrow=classic;html=1;rounded=0;exitX=1;exitY=0.5;exitDx=0;exitDy=0;entryX=0.5;entryY=0;entryDx=0;entryDy=0;" edge="1" parent="1" source="b8SGIurOboEkmsRjIlzD-28">
          <mxGeometry width="50" height="50" relative="1" as="geometry">
            <mxPoint x="170" y="570" as="sourcePoint" />
            <mxPoint x="315" y="550" as="targetPoint" />
          </mxGeometry>
        </mxCell>
        <mxCell id="b8SGIurOboEkmsRjIlzD-30" value="true" style="text;html=1;align=center;verticalAlign=middle;whiteSpace=wrap;rounded=0;" vertex="1" parent="1">
          <mxGeometry x="294" y="490" width="60" height="30" as="geometry" />
        </mxCell>
        <mxCell id="b8SGIurOboEkmsRjIlzD-31" style="edgeStyle=orthogonalEdgeStyle;rounded=0;orthogonalLoop=1;jettySize=auto;html=1;exitX=0.5;exitY=1;exitDx=0;exitDy=0;" edge="1" parent="1" source="b8SGIurOboEkmsRjIlzD-30" target="b8SGIurOboEkmsRjIlzD-30">
          <mxGeometry relative="1" as="geometry" />
        </mxCell>
        <mxCell id="b8SGIurOboEkmsRjIlzD-32" value="return true" style="shape=parallelogram;perimeter=parallelogramPerimeter;whiteSpace=wrap;html=1;fixedSize=1;" vertex="1" parent="1">
          <mxGeometry x="75" y="540" width="95" height="40" as="geometry" />
        </mxCell>
        <mxCell id="b8SGIurOboEkmsRjIlzD-33" value="" style="endArrow=classic;html=1;rounded=0;exitX=0;exitY=0.5;exitDx=0;exitDy=0;entryX=0.672;entryY=-0.068;entryDx=0;entryDy=0;entryPerimeter=0;" edge="1" parent="1" source="b8SGIurOboEkmsRjIlzD-28" target="b8SGIurOboEkmsRjIlzD-32">
          <mxGeometry width="50" height="50" relative="1" as="geometry">
            <mxPoint x="170" y="570" as="sourcePoint" />
            <mxPoint x="220" y="520" as="targetPoint" />
          </mxGeometry>
        </mxCell>
        <mxCell id="b8SGIurOboEkmsRjIlzD-34" value="false" style="text;html=1;align=center;verticalAlign=middle;whiteSpace=wrap;rounded=0;" vertex="1" parent="1">
          <mxGeometry x="105" y="480" width="60" height="30" as="geometry" />
        </mxCell>
        <mxCell id="b8SGIurOboEkmsRjIlzD-35" value="&lt;span style=&quot;color: rgb(0, 0, 0); font-family: Helvetica; font-size: 12px; font-style: normal; font-variant-ligatures: normal; font-variant-caps: normal; font-weight: 400; letter-spacing: normal; orphans: 2; text-align: center; text-indent: 0px; text-transform: none; widows: 2; word-spacing: 0px; -webkit-text-stroke-width: 0px; white-space: normal; background-color: rgb(251, 251, 251); text-decoration-thickness: initial; text-decoration-style: initial; text-decoration-color: initial; display: inline !important; float: none;&quot;&gt;false&lt;/span&gt;" style="text;whiteSpace=wrap;html=1;" vertex="1" parent="1">
          <mxGeometry x="130" y="650" width="60" height="40" as="geometry" />
        </mxCell>
        <mxCell id="b8SGIurOboEkmsRjIlzD-36" value="&lt;span style=&quot;color: rgb(0, 0, 0); font-family: Helvetica; font-size: 12px; font-style: normal; font-variant-ligatures: normal; font-variant-caps: normal; font-weight: 400; letter-spacing: normal; orphans: 2; text-align: center; text-indent: 0px; text-transform: none; widows: 2; word-spacing: 0px; -webkit-text-stroke-width: 0px; white-space: normal; background-color: rgb(251, 251, 251); text-decoration-thickness: initial; text-decoration-style: initial; text-decoration-color: initial; display: inline !important; float: none;&quot;&gt;false&lt;/span&gt;" style="text;whiteSpace=wrap;html=1;" vertex="1" parent="1">
          <mxGeometry x="209" y="570" width="60" height="40" as="geometry" />
        </mxCell>
        <mxCell id="b8SGIurOboEkmsRjIlzD-37" value="" style="endArrow=classic;html=1;rounded=0;exitX=1;exitY=0.25;exitDx=0;exitDy=0;entryX=0.25;entryY=1;entryDx=0;entryDy=0;" edge="1" parent="1" source="b8SGIurOboEkmsRjIlzD-36" target="b8SGIurOboEkmsRjIlzD-36">
          <mxGeometry width="50" height="50" relative="1" as="geometry">
            <mxPoint x="250" y="630" as="sourcePoint" />
            <mxPoint x="300" y="580" as="targetPoint" />
          </mxGeometry>
        </mxCell>
        <mxCell id="b8SGIurOboEkmsRjIlzD-40" value="" style="endArrow=classic;html=1;rounded=0;exitX=0;exitY=0.5;exitDx=0;exitDy=0;entryX=0.5;entryY=1;entryDx=0;entryDy=0;" edge="1" parent="1" source="b8SGIurOboEkmsRjIlzD-17" target="b8SGIurOboEkmsRjIlzD-35">
          <mxGeometry width="50" height="50" relative="1" as="geometry">
            <mxPoint x="120" y="830" as="sourcePoint" />
            <mxPoint x="170" y="780" as="targetPoint" />
          </mxGeometry>
        </mxCell>
        <mxCell id="b8SGIurOboEkmsRjIlzD-41" value="" style="endArrow=classic;html=1;rounded=0;entryX=0.096;entryY=-0.06;entryDx=0;entryDy=0;entryPerimeter=0;exitX=1;exitY=0.5;exitDx=0;exitDy=0;" edge="1" parent="1" source="b8SGIurOboEkmsRjIlzD-17" target="b8SGIurOboEkmsRjIlzD-18">
          <mxGeometry width="50" height="50" relative="1" as="geometry">
            <mxPoint x="480" y="840" as="sourcePoint" />
            <mxPoint x="530" y="790" as="targetPoint" />
          </mxGeometry>
        </mxCell>
        <mxCell id="b8SGIurOboEkmsRjIlzD-42" value="" style="endArrow=classic;html=1;rounded=0;exitX=0.5;exitY=1;exitDx=0;exitDy=0;entryX=0.5;entryY=0;entryDx=0;entryDy=0;" edge="1" parent="1" source="b8SGIurOboEkmsRjIlzD-18" target="b8SGIurOboEkmsRjIlzD-27">
          <mxGeometry width="50" height="50" relative="1" as="geometry">
            <mxPoint x="440" y="850" as="sourcePoint" />
            <mxPoint x="490" y="800" as="targetPoint" />
          </mxGeometry>
        </mxCell>
        <mxCell id="b8SGIurOboEkmsRjIlzD-43" value="" style="endArrow=classic;html=1;rounded=0;exitX=0;exitY=0.5;exitDx=0;exitDy=0;entryX=0;entryY=0.75;entryDx=0;entryDy=0;" edge="1" parent="1" source="b8SGIurOboEkmsRjIlzD-20" target="b8SGIurOboEkmsRjIlzD-27">
          <mxGeometry width="50" height="50" relative="1" as="geometry">
            <mxPoint x="100" y="730" as="sourcePoint" />
            <mxPoint x="180" y="890" as="targetPoint" />
          </mxGeometry>
        </mxCell>
        <mxCell id="b8SGIurOboEkmsRjIlzD-44" value="&lt;span style=&quot;color: rgb(0, 0, 0); font-family: Helvetica; font-size: 12px; font-style: normal; font-variant-ligatures: normal; font-variant-caps: normal; font-weight: 400; letter-spacing: normal; orphans: 2; text-align: center; text-indent: 0px; text-transform: none; widows: 2; word-spacing: 0px; -webkit-text-stroke-width: 0px; white-space: normal; background-color: rgb(251, 251, 251); text-decoration-thickness: initial; text-decoration-style: initial; text-decoration-color: initial; display: inline !important; float: none;&quot;&gt;false&lt;/span&gt;" style="text;whiteSpace=wrap;html=1;" vertex="1" parent="1">
          <mxGeometry x="120" y="820" width="60" height="40" as="geometry" />
        </mxCell>
        <mxCell id="b8SGIurOboEkmsRjIlzD-45" value="" style="endArrow=none;html=1;rounded=0;exitX=0.549;exitY=1.002;exitDx=0;exitDy=0;exitPerimeter=0;" edge="1" parent="1" source="b8SGIurOboEkmsRjIlzD-27">
          <mxGeometry width="50" height="50" relative="1" as="geometry">
            <mxPoint x="280" y="970" as="sourcePoint" />
            <mxPoint x="520" y="940" as="targetPoint" />
            <Array as="points">
              <mxPoint x="280" y="1000" />
              <mxPoint x="520" y="1000" />
            </Array>
          </mxGeometry>
        </mxCell>
        <mxCell id="b8SGIurOboEkmsRjIlzD-46" value="" style="endArrow=none;html=1;rounded=0;" edge="1" parent="1">
          <mxGeometry width="50" height="50" relative="1" as="geometry">
            <mxPoint x="520" y="940" as="sourcePoint" />
            <mxPoint x="520" y="440" as="targetPoint" />
          </mxGeometry>
        </mxCell>
        <mxCell id="b8SGIurOboEkmsRjIlzD-48" value="" style="endArrow=classic;html=1;rounded=0;" edge="1" parent="1">
          <mxGeometry width="50" height="50" relative="1" as="geometry">
            <mxPoint x="520" y="440" as="sourcePoint" />
            <mxPoint x="252" y="440" as="targetPoint" />
          </mxGeometry>
        </mxCell>
        <mxCell id="b8SGIurOboEkmsRjIlzD-50" value="" style="endArrow=classic;html=1;rounded=0;exitX=0.5;exitY=1;exitDx=0;exitDy=0;" edge="1" parent="1" source="b8SGIurOboEkmsRjIlzD-9">
          <mxGeometry width="50" height="50" relative="1" as="geometry">
            <mxPoint x="10" y="450" as="sourcePoint" />
            <mxPoint x="252" y="460" as="targetPoint" />
          </mxGeometry>
        </mxCell>
        <mxCell id="b8SGIurOboEkmsRjIlzD-51" value="" style="endArrow=classic;html=1;rounded=0;exitX=0;exitY=0.5;exitDx=0;exitDy=0;" edge="1" parent="1" source="b8SGIurOboEkmsRjIlzD-3">
          <mxGeometry width="50" height="50" relative="1" as="geometry">
            <mxPoint x="110" y="330" as="sourcePoint" />
            <mxPoint x="250" y="360" as="targetPoint" />
          </mxGeometry>
        </mxCell>
        <mxCell id="b8SGIurOboEkmsRjIlzD-52" value="false" style="text;html=1;align=center;verticalAlign=middle;whiteSpace=wrap;rounded=0;" vertex="1" parent="1">
          <mxGeometry x="235" y="320" width="60" height="30" as="geometry" />
        </mxCell>
        <mxCell id="b8SGIurOboEkmsRjIlzD-53" value="" style="endArrow=classic;html=1;rounded=0;exitX=0.5;exitY=1;exitDx=0;exitDy=0;entryX=0.5;entryY=0;entryDx=0;entryDy=0;" edge="1" parent="1" source="b8SGIurOboEkmsRjIlzD-2" target="b8SGIurOboEkmsRjIlzD-3">
          <mxGeometry width="50" height="50" relative="1" as="geometry">
            <mxPoint x="50" y="230" as="sourcePoint" />
            <mxPoint x="100" y="180" as="targetPoint" />
          </mxGeometry>
        </mxCell>
        <mxCell id="b8SGIurOboEkmsRjIlzD-54" value="" style="endArrow=classic;html=1;rounded=0;exitX=0.5;exitY=1;exitDx=0;exitDy=0;" edge="1" parent="1" source="b8SGIurOboEkmsRjIlzD-1" target="b8SGIurOboEkmsRjIlzD-2">
          <mxGeometry width="50" height="50" relative="1" as="geometry">
            <mxPoint x="230" y="190" as="sourcePoint" />
            <mxPoint x="280" y="140" as="targetPoint" />
          </mxGeometry>
        </mxCell>
        <mxCell id="b8SGIurOboEkmsRjIlzD-56" value="true" style="text;html=1;align=center;verticalAlign=middle;whiteSpace=wrap;rounded=0;" vertex="1" parent="1">
          <mxGeometry x="270" y="612.5" width="60" height="30" as="geometry" />
        </mxCell>
        <mxCell id="b8SGIurOboEkmsRjIlzD-57" value="&lt;h1 style=&quot;margin-top: 0px;&quot;&gt;Функция&amp;nbsp;check_same_sign(arr)&lt;/h1&gt;" style="text;html=1;whiteSpace=wrap;overflow=hidden;rounded=0;" vertex="1" parent="1">
          <mxGeometry x="190" y="110" width="371" height="80" as="geometry" />
        </mxCell>
        <mxCell id="b8SGIurOboEkmsRjIlzD-58" value="Начало" style="ellipse;whiteSpace=wrap;html=1;" vertex="1" parent="1">
          <mxGeometry x="985" y="90" width="100" height="60" as="geometry" />
        </mxCell>
        <mxCell id="b8SGIurOboEkmsRjIlzD-59" value="found = false&lt;div&gt;i = 1&lt;/div&gt;&lt;div&gt;j = 1&lt;/div&gt;" style="rounded=0;whiteSpace=wrap;html=1;" vertex="1" parent="1">
          <mxGeometry x="975" y="250" width="110" height="50" as="geometry" />
        </mxCell>
        <mxCell id="b8SGIurOboEkmsRjIlzD-60" value="if&amp;nbsp;&lt;b&gt;check_same_sign&lt;/b&gt; (arrays[j])" style="rhombus;whiteSpace=wrap;html=1;" vertex="1" parent="1">
          <mxGeometry x="1040" y="457.5" width="245" height="89" as="geometry" />
        </mxCell>
        <mxCell id="b8SGIurOboEkmsRjIlzD-62" value="Вывод(&quot;Массив {i} состоит из элементов одного знака.&quot;)" style="shape=parallelogram;perimeter=parallelogramPerimeter;whiteSpace=wrap;html=1;fixedSize=1;" vertex="1" parent="1">
          <mxGeometry x="1245" y="552.5" width="210" height="60" as="geometry" />
        </mxCell>
        <mxCell id="b8SGIurOboEkmsRjIlzD-63" value="found = True" style="rounded=0;whiteSpace=wrap;html=1;" vertex="1" parent="1">
          <mxGeometry x="1285" y="662.5" width="120" height="40" as="geometry" />
        </mxCell>
        <mxCell id="b8SGIurOboEkmsRjIlzD-64" value="i += 1" style="rounded=0;whiteSpace=wrap;html=1;" vertex="1" parent="1">
          <mxGeometry x="1070" y="760" width="120" height="60" as="geometry" />
        </mxCell>
        <mxCell id="b8SGIurOboEkmsRjIlzD-65" value="" style="endArrow=classic;html=1;rounded=0;exitX=0.454;exitY=0.957;exitDx=0;exitDy=0;exitPerimeter=0;" edge="1" parent="1" source="b8SGIurOboEkmsRjIlzD-62">
          <mxGeometry width="50" height="50" relative="1" as="geometry">
            <mxPoint x="1355" y="622.5" as="sourcePoint" />
            <mxPoint x="1340" y="659.5" as="targetPoint" />
          </mxGeometry>
        </mxCell>
        <mxCell id="b8SGIurOboEkmsRjIlzD-66" value="arrays" style="shape=parallelogram;perimeter=parallelogramPerimeter;whiteSpace=wrap;html=1;fixedSize=1;" vertex="1" parent="1">
          <mxGeometry x="978.5" y="180" width="103" height="40" as="geometry" />
        </mxCell>
        <mxCell id="b8SGIurOboEkmsRjIlzD-67" value="if j &amp;lt; len(arays)" style="rhombus;whiteSpace=wrap;html=1;" vertex="1" parent="1">
          <mxGeometry x="969.25" y="338" width="121.5" height="80" as="geometry" />
        </mxCell>
        <mxCell id="b8SGIurOboEkmsRjIlzD-69" value="if found == 0" style="rhombus;whiteSpace=wrap;html=1;" vertex="1" parent="1">
          <mxGeometry x="780" y="410" width="133" height="70" as="geometry" />
        </mxCell>
        <mxCell id="b8SGIurOboEkmsRjIlzD-70" value="Вывод(&quot;Нет массивов, состоящих из элементов одного знака.&quot;)" style="shape=parallelogram;perimeter=parallelogramPerimeter;whiteSpace=wrap;html=1;fixedSize=1;" vertex="1" parent="1">
          <mxGeometry x="750" y="580" width="260" height="100" as="geometry" />
        </mxCell>
        <mxCell id="b8SGIurOboEkmsRjIlzD-71" value="" style="endArrow=classic;html=1;rounded=0;exitX=0.5;exitY=1;exitDx=0;exitDy=0;" edge="1" parent="1" source="b8SGIurOboEkmsRjIlzD-63">
          <mxGeometry width="50" height="50" relative="1" as="geometry">
            <mxPoint x="1400" y="750" as="sourcePoint" />
            <mxPoint x="1120" y="730" as="targetPoint" />
            <Array as="points">
              <mxPoint x="1345" y="730" />
            </Array>
          </mxGeometry>
        </mxCell>
        <mxCell id="b8SGIurOboEkmsRjIlzD-72" value="" style="endArrow=classic;html=1;rounded=0;exitX=0;exitY=0.5;exitDx=0;exitDy=0;entryX=0.5;entryY=0;entryDx=0;entryDy=0;" edge="1" parent="1" source="b8SGIurOboEkmsRjIlzD-60" target="b8SGIurOboEkmsRjIlzD-64">
          <mxGeometry width="50" height="50" relative="1" as="geometry">
            <mxPoint x="910" y="720" as="sourcePoint" />
            <mxPoint x="960" y="670" as="targetPoint" />
          </mxGeometry>
        </mxCell>
        <mxCell id="b8SGIurOboEkmsRjIlzD-73" value="" style="endArrow=classic;html=1;rounded=0;entryX=0.437;entryY=0.082;entryDx=0;entryDy=0;entryPerimeter=0;exitX=1;exitY=0.5;exitDx=0;exitDy=0;" edge="1" parent="1" source="b8SGIurOboEkmsRjIlzD-60" target="b8SGIurOboEkmsRjIlzD-62">
          <mxGeometry width="50" height="50" relative="1" as="geometry">
            <mxPoint x="1300" y="510" as="sourcePoint" />
            <mxPoint x="1470" y="780" as="targetPoint" />
          </mxGeometry>
        </mxCell>
        <mxCell id="b8SGIurOboEkmsRjIlzD-74" value="" style="endArrow=none;html=1;rounded=0;exitX=0.5;exitY=1;exitDx=0;exitDy=0;" edge="1" parent="1" source="b8SGIurOboEkmsRjIlzD-64">
          <mxGeometry width="50" height="50" relative="1" as="geometry">
            <mxPoint x="1190" y="799.29" as="sourcePoint" />
            <mxPoint x="1130" y="880" as="targetPoint" />
          </mxGeometry>
        </mxCell>
        <mxCell id="b8SGIurOboEkmsRjIlzD-75" value="" style="endArrow=none;html=1;rounded=0;" edge="1" parent="1">
          <mxGeometry width="50" height="50" relative="1" as="geometry">
            <mxPoint x="1480" y="880" as="sourcePoint" />
            <mxPoint x="1480" y="320" as="targetPoint" />
          </mxGeometry>
        </mxCell>
        <mxCell id="b8SGIurOboEkmsRjIlzD-78" value="" style="endArrow=classic;html=1;rounded=0;" edge="1" parent="1">
          <mxGeometry width="50" height="50" relative="1" as="geometry">
            <mxPoint x="1480" y="320" as="sourcePoint" />
            <mxPoint x="1030" y="320" as="targetPoint" />
          </mxGeometry>
        </mxCell>
        <mxCell id="b8SGIurOboEkmsRjIlzD-79" value="" style="endArrow=classic;html=1;rounded=0;exitX=0.5;exitY=1;exitDx=0;exitDy=0;entryX=0.5;entryY=0;entryDx=0;entryDy=0;" edge="1" parent="1" source="b8SGIurOboEkmsRjIlzD-59" target="b8SGIurOboEkmsRjIlzD-67">
          <mxGeometry width="50" height="50" relative="1" as="geometry">
            <mxPoint x="1240" y="290" as="sourcePoint" />
            <mxPoint x="1290" y="240" as="targetPoint" />
          </mxGeometry>
        </mxCell>
        <mxCell id="b8SGIurOboEkmsRjIlzD-80" value="" style="endArrow=classic;html=1;rounded=0;exitX=0.5;exitY=1;exitDx=0;exitDy=0;entryX=0.5;entryY=0;entryDx=0;entryDy=0;" edge="1" parent="1" source="b8SGIurOboEkmsRjIlzD-66" target="b8SGIurOboEkmsRjIlzD-59">
          <mxGeometry width="50" height="50" relative="1" as="geometry">
            <mxPoint x="1130" y="220" as="sourcePoint" />
            <mxPoint x="1180" y="170" as="targetPoint" />
          </mxGeometry>
        </mxCell>
        <mxCell id="b8SGIurOboEkmsRjIlzD-81" value="" style="endArrow=classic;html=1;rounded=0;exitX=0.5;exitY=1;exitDx=0;exitDy=0;" edge="1" parent="1" source="b8SGIurOboEkmsRjIlzD-58">
          <mxGeometry width="50" height="50" relative="1" as="geometry">
            <mxPoint x="1090" y="160" as="sourcePoint" />
            <mxPoint x="1035" y="180" as="targetPoint" />
          </mxGeometry>
        </mxCell>
        <mxCell id="b8SGIurOboEkmsRjIlzD-82" value="" style="endArrow=classic;html=1;rounded=0;exitX=0;exitY=0.5;exitDx=0;exitDy=0;entryX=0.5;entryY=0;entryDx=0;entryDy=0;" edge="1" parent="1" source="b8SGIurOboEkmsRjIlzD-67" target="b8SGIurOboEkmsRjIlzD-69">
          <mxGeometry width="50" height="50" relative="1" as="geometry">
            <mxPoint x="800" y="250" as="sourcePoint" />
            <mxPoint x="850" y="200" as="targetPoint" />
          </mxGeometry>
        </mxCell>
        <mxCell id="b8SGIurOboEkmsRjIlzD-83" value="" style="endArrow=classic;html=1;rounded=0;exitX=1;exitY=0.5;exitDx=0;exitDy=0;entryX=0.808;entryY=0.02;entryDx=0;entryDy=0;entryPerimeter=0;" edge="1" parent="1" source="b8SGIurOboEkmsRjIlzD-69" target="b8SGIurOboEkmsRjIlzD-70">
          <mxGeometry width="50" height="50" relative="1" as="geometry">
            <mxPoint x="790" y="830" as="sourcePoint" />
            <mxPoint x="850" y="500" as="targetPoint" />
            <Array as="points">
              <mxPoint x="960" y="445" />
            </Array>
          </mxGeometry>
        </mxCell>
        <mxCell id="b8SGIurOboEkmsRjIlzD-85" value="" style="endArrow=classic;html=1;rounded=0;exitX=1;exitY=0.5;exitDx=0;exitDy=0;entryX=0.5;entryY=0;entryDx=0;entryDy=0;" edge="1" parent="1" source="b8SGIurOboEkmsRjIlzD-67" target="b8SGIurOboEkmsRjIlzD-60">
          <mxGeometry width="50" height="50" relative="1" as="geometry">
            <mxPoint x="1090" y="450" as="sourcePoint" />
            <mxPoint x="1140" y="400" as="targetPoint" />
          </mxGeometry>
        </mxCell>
        <mxCell id="b8SGIurOboEkmsRjIlzD-86" value="true" style="text;html=1;align=center;verticalAlign=middle;whiteSpace=wrap;rounded=0;" vertex="1" parent="1">
          <mxGeometry x="1120" y="388" width="60" height="30" as="geometry" />
        </mxCell>
        <mxCell id="b8SGIurOboEkmsRjIlzD-87" value="&lt;span style=&quot;color: rgb(0, 0, 0); font-family: Helvetica; font-size: 12px; font-style: normal; font-variant-ligatures: normal; font-variant-caps: normal; font-weight: 400; letter-spacing: normal; orphans: 2; text-align: center; text-indent: 0px; text-transform: none; widows: 2; word-spacing: 0px; -webkit-text-stroke-width: 0px; white-space: normal; background-color: rgb(251, 251, 251); text-decoration-thickness: initial; text-decoration-style: initial; text-decoration-color: initial; display: inline !important; float: none;&quot;&gt;true&lt;/span&gt;" style="text;whiteSpace=wrap;html=1;" vertex="1" parent="1">
          <mxGeometry x="1310" y="506.25" width="50" height="40" as="geometry" />
        </mxCell>
        <mxCell id="b8SGIurOboEkmsRjIlzD-88" value="" style="endArrow=none;html=1;rounded=0;" edge="1" parent="1">
          <mxGeometry width="50" height="50" relative="1" as="geometry">
            <mxPoint x="1130" y="880" as="sourcePoint" />
            <mxPoint x="1480" y="880" as="targetPoint" />
          </mxGeometry>
        </mxCell>
        <mxCell id="b8SGIurOboEkmsRjIlzD-89" value="if arr[i] == 0" style="rhombus;whiteSpace=wrap;html=1;" vertex="1" parent="1">
          <mxGeometry x="254.5" y="546.5" width="101" height="47" as="geometry" />
        </mxCell>
        <mxCell id="b8SGIurOboEkmsRjIlzD-95" value="Конец" style="ellipse;whiteSpace=wrap;html=1;" vertex="1" parent="1">
          <mxGeometry x="10" y="616.5" width="80" height="46" as="geometry" />
        </mxCell>
        <mxCell id="b8SGIurOboEkmsRjIlzD-96" value="Конец" style="ellipse;whiteSpace=wrap;html=1;" vertex="1" parent="1">
          <mxGeometry x="391.5" y="702.5" width="80" height="46" as="geometry" />
        </mxCell>
        <mxCell id="b8SGIurOboEkmsRjIlzD-98" value="" style="endArrow=classic;html=1;rounded=0;exitX=0.35;exitY=0.991;exitDx=0;exitDy=0;exitPerimeter=0;entryX=0.64;entryY=-0.034;entryDx=0;entryDy=0;entryPerimeter=0;" edge="1" parent="1" source="b8SGIurOboEkmsRjIlzD-32" target="b8SGIurOboEkmsRjIlzD-95">
          <mxGeometry width="50" height="50" relative="1" as="geometry">
            <mxPoint x="30" y="540" as="sourcePoint" />
            <mxPoint x="80" y="490" as="targetPoint" />
          </mxGeometry>
        </mxCell>
        <mxCell id="b8SGIurOboEkmsRjIlzD-99" value="" style="endArrow=classic;html=1;rounded=0;exitX=0.439;exitY=0.925;exitDx=0;exitDy=0;exitPerimeter=0;" edge="1" parent="1" source="b8SGIurOboEkmsRjIlzD-11">
          <mxGeometry width="50" height="50" relative="1" as="geometry">
            <mxPoint x="590" y="740" as="sourcePoint" />
            <mxPoint x="425" y="700" as="targetPoint" />
          </mxGeometry>
        </mxCell>
        <mxCell id="b8SGIurOboEkmsRjIlzD-100" value="true" style="text;html=1;align=center;verticalAlign=middle;whiteSpace=wrap;rounded=0;" vertex="1" parent="1">
          <mxGeometry x="890" y="418" width="60" height="30" as="geometry" />
        </mxCell>
        <mxCell id="b8SGIurOboEkmsRjIlzD-101" value="" style="endArrow=classic;html=1;rounded=0;exitX=0;exitY=0.5;exitDx=0;exitDy=0;entryX=0.375;entryY=0.063;entryDx=0;entryDy=0;entryPerimeter=0;" edge="1" parent="1" source="b8SGIurOboEkmsRjIlzD-69" target="b8SGIurOboEkmsRjIlzD-102">
          <mxGeometry width="50" height="50" relative="1" as="geometry">
            <mxPoint x="640" y="560" as="sourcePoint" />
            <mxPoint x="680" y="780" as="targetPoint" />
            <Array as="points">
              <mxPoint x="680" y="440" />
              <mxPoint x="680" y="620" />
            </Array>
          </mxGeometry>
        </mxCell>
        <mxCell id="b8SGIurOboEkmsRjIlzD-102" value="Конец" style="ellipse;whiteSpace=wrap;html=1;" vertex="1" parent="1">
          <mxGeometry x="690" y="765" width="120" height="80" as="geometry" />
        </mxCell>
        <mxCell id="b8SGIurOboEkmsRjIlzD-103" value="" style="endArrow=classic;html=1;rounded=0;exitX=0.719;exitY=0.99;exitDx=0;exitDy=0;exitPerimeter=0;" edge="1" parent="1" source="b8SGIurOboEkmsRjIlzD-70">
          <mxGeometry width="50" height="50" relative="1" as="geometry">
            <mxPoint x="870" y="780" as="sourcePoint" />
            <mxPoint x="720" y="730" as="targetPoint" />
          </mxGeometry>
        </mxCell>
        <mxCell id="b8SGIurOboEkmsRjIlzD-104" value="false" style="text;html=1;align=center;verticalAlign=middle;whiteSpace=wrap;rounded=0;" vertex="1" parent="1">
          <mxGeometry x="730" y="410" width="60" height="30" as="geometry" />
        </mxCell>
        <mxCell id="b8SGIurOboEkmsRjIlzD-105" value="false" style="text;html=1;align=center;verticalAlign=middle;whiteSpace=wrap;rounded=0;" vertex="1" parent="1">
          <mxGeometry x="1010" y="465" width="60" height="30" as="geometry" />
        </mxCell>
        <mxCell id="b8SGIurOboEkmsRjIlzD-106" value="false" style="text;html=1;align=center;verticalAlign=middle;whiteSpace=wrap;rounded=0;" vertex="1" parent="1">
          <mxGeometry x="910" y="350" width="60" height="30" as="geometry" />
        </mxCell>
      </root>
    </mxGraphModel>
  </diagram>
</mxfile>
